<?xml version="1.0" encoding="UTF-8" standalone="no"?>
<!-- Created with Inkscape (http://www.inkscape.org/) -->

<svg
   xmlns:dc="http://purl.org/dc/elements/1.1/"
   xmlns:cc="http://creativecommons.org/ns#"
   xmlns:rdf="http://www.w3.org/1999/02/22-rdf-syntax-ns#"
   xmlns:svg="http://www.w3.org/2000/svg"
   xmlns="http://www.w3.org/2000/svg"
   xmlns:sodipodi="http://sodipodi.sourceforge.net/DTD/sodipodi-0.dtd"
   xmlns:inkscape="http://www.inkscape.org/namespaces/inkscape"
   width="451.57144"
   height="791.57135"
   id="svg3885"
   version="1.1"
   inkscape:version="0.47 r22583"
   sodipodi:docname="BAMBOO.svg">
  <defs
     id="defs3887">
    <inkscape:path-effect
       effect="skeletal"
       id="path-effect4158"
       is_visible="true"
       pattern="m 43.475291,1.4370575 c -1.35894,0.0702 -1.81396,0.71718 -2.44573,1.1291501 -2.37398,2.02355 -1.55904,4.34824 -0.52768,6.46615 0.6824,1.3259704 1.64718,2.6283204 2.15461,3.9685804 0.85316,-1.86022 -0.87723,-3.8001804 0.6141,-5.6270704 0.40001,-0.37929 1.22264,-0.84231 2.17609,-0.90752 2.47593,1.56435 5.3582,3.17792 5.73054,5.0861704 0.22531,1.11102 -1.56169,2.14107 -4.01729,2.59448 -3.23346,1.4206 -9.7015,1.33817 -12.43114,-0.28262 -1.35164,-0.77356 -1.14173,-1.78921 -0.36733,-2.63299 -0.0305,-0.86742 -1.14611,-1.7430804 -2.81007,-2.2881404 -1.13841,-0.30951 -1.83465,0.38101 -1.36488,0.73951 0.82946,1.7530604 3.50661,3.3712504 3.13738,5.2039504 -0.21885,0.82575 -1.95173,1.50044 -3.8858,1.67675 -3.71647,-0.30757 -5.93311,-1.69542 -7.46705,-2.98104 -1.6738,-1.3287 -3.3258,-2.90522 -7.0381,-3.4759 -0.86446,-0.2249404 -1.19509,0.32555 -1.88151,0.46807 -2.6362,0.8925 -6.3715601,1.2884 -8.2136801,2.5296 -0.50023,0.40625 -0.76288,0.96211 -0.34263,1.36168 12.7251101,1.24187 25.4887101,2.60731 37.3425601,4.8952 5.79377,0.15147 11.03685,-1.28523 14.61073,-3.01148 2.06202,-1.00567 3.84207,-2.13924 4.93358,-3.36632 -0.0934,-1.96187 -3.40137,-3.5469904 -6.60419,-4.8890304 -3.42943,-1.46398 -7.35487,-3.01973 -8.02058,-5.11889 0.11028,-0.6988001 -1.11189,-1.3878301 -2.82135,-1.5382901 -0.15755,0.008 -0.30603,-0.0226 -0.46058,0 z"
       copytype="single_stretched"
       prop_scale="1"
       scale_y_rel="false"
       spacing="0"
       normal_offset="0"
       tang_offset="0"
       prop_units="false"
       vertical_pattern="false"
       fuse_tolerance="0" />
    <inkscape:path-effect
       effect="bend_path"
       id="path-effect4148"
       is_visible="true"
       bendpath="m 39.189575,0.00848655 c -1.35894,0.0702 -1.81396,0.71718 -2.44573,1.12915005 -2.37398,2.02355 -1.55904,4.34824 -0.52768,6.46615 0.6824,1.32597 1.64718,2.6283204 2.15461,3.9685804 0.85316,-1.8602204 -0.87723,-3.8001804 0.6141,-5.6270704 0.40001,-0.37929 1.22264,-0.84231 2.17609,-0.90752 2.47593,1.56435 5.3582,3.17792 5.73054,5.0861704 0.22531,1.11102 -1.56169,2.14107 -4.01729,2.59448 -3.23346,1.4206 -9.7015,1.33817 -12.43114,-0.28262 -1.35164,-0.77356 -1.14173,-1.78921 -0.36733,-2.6329904 -0.0305,-0.86742 -1.14611,-1.74308 -2.81007,-2.28814 -1.13841,-0.30951 -1.83465,0.38101 -1.36488,0.73951 0.82946,1.7530604 3.50661,3.3712504 3.13738,5.2039504 -0.21885,0.82575 -1.95173,1.50044 -3.8858,1.67675 -3.71647,-0.30757 -5.93311,-1.69542 -7.46705,-2.98104 -1.6738,-1.3287 -3.3258,-2.9052204 -7.0381,-3.4759004 -0.8644603,-0.22494 -1.1950903,0.32555 -1.8815103,0.46807 -2.6362,0.8925004 -6.37156,1.2884004 -8.21368004,2.5296004 -0.50023,0.40625 -0.76288,0.96211 -0.34263,1.36168 12.72511034,1.24187 25.48871034,2.60731 37.34256034,4.8952 5.79377,0.15147 11.03685,-1.28523 14.61073,-3.01148 2.06202,-1.00567 3.84207,-2.13924 4.93358,-3.36632 -0.0934,-1.9618704 -3.40137,-3.5469904 -6.60419,-4.8890304 -3.42943,-1.46398 -7.35487,-3.01973 -8.02058,-5.11889 0.11028,-0.69880005 -1.11189,-1.38783005 -2.82135,-1.53829005 -0.15755,0.008 -0.30603,-0.0226 -0.46058,0 z"
       prop_scale="1"
       scale_y_rel="false"
       vertical="false" />
    <inkscape:path-effect
       effect="construct_grid"
       id="path-effect4146"
       is_visible="true"
       nr_x="5"
       nr_y="5" />
    <inkscape:path-effect
       effect="bend_path"
       id="path-effect4110"
       is_visible="true"
       bendpath="m -313.14729,253.1518 335.370646,0"
       prop_scale="1"
       scale_y_rel="false"
       vertical="false" />
    <inkscape:perspective
       sodipodi:type="inkscape:persp3d"
       inkscape:vp_x="0 : 526.18109 : 1"
       inkscape:vp_y="0 : 1000 : 0"
       inkscape:vp_z="744.09448 : 526.18109 : 1"
       inkscape:persp3d-origin="372.04724 : 350.78739 : 1"
       id="perspective3893" />
    <inkscape:perspective
       id="perspective3834"
       inkscape:persp3d-origin="0.5 : 0.33333333 : 1"
       inkscape:vp_z="1 : 0.5 : 1"
       inkscape:vp_y="0 : 1000 : 0"
       inkscape:vp_x="0 : 0.5 : 1"
       sodipodi:type="inkscape:persp3d" />
  </defs>
  <sodipodi:namedview
     id="base"
     pagecolor="#ffffff"
     bordercolor="#666666"
     borderopacity="1.0"
     inkscape:pageopacity="0.0"
     inkscape:pageshadow="2"
     inkscape:zoom="0.49497475"
     inkscape:cx="303.81742"
     inkscape:cy="490.7204"
     inkscape:document-units="px"
     inkscape:current-layer="layer1"
     showgrid="false"
     inkscape:window-width="1024"
     inkscape:window-height="742"
     inkscape:window-x="-4"
     inkscape:window-y="-4"
     inkscape:window-maximized="1" />
  <metadata
     id="metadata3890">
    <rdf:RDF>
      <cc:Work
         rdf:about="">
        <dc:format>image/svg+xml</dc:format>
        <dc:type
           rdf:resource="http://purl.org/dc/dcmitype/StillImage" />
        <dc:title />
      </cc:Work>
    </rdf:RDF>
  </metadata>
  <g
     inkscape:label="Layer 1"
     inkscape:groupmode="layer"
     id="layer1"
     transform="translate(-187.07143,-225.14789)">
    <path
       style="fill:#abc837;fill-opacity:1;fill-rule:nonzero;stroke:none"
       d=""
       id="path3203"
       transform="translate(187.07143,225.14789)" />
    <g
       id="g3258"
       style="fill:#88aa00"
       transform="translate(-667.18429,-11.80871)">
      <g
         style="fill:#88aa00;stroke:none"
         transform="matrix(2.0743741,0.83180861,-0.60301996,1.4145033,501.36872,-435.31161)"
         id="g3113">
        <path
           style="fill:#88aa00;stroke:none"
           d="m 425.89286,340.21932 c 0,0 -2.67857,-4.46428 -9.46429,-3.92857 -6.78571,0.53572 -7.32143,1.07143 -7.32143,1.07143 0,0 9.64286,0.53572 16.78572,2.85714 z"
           id="path3115" />
        <path
           style="fill:#88aa00;stroke:none"
           d="m 425.84507,341.38457 c 0,0 -8.57143,0 -11.25,4.10714 -2.67857,4.10714 -3.57143,5.71429 -3.57143,5.71429 0,0 10.53571,-5.17857 14.82143,-9.82143 z"
           id="path3117" />
        <path
           style="fill:#88aa00;stroke:none"
           d="m 426.4628,341.7899 c 0,0 -6.96429,3.75 -5,10.53572 1.96428,6.78571 2.14286,7.32143 2.14286,7.32143 0,0 2.5,-8.39286 2.85714,-17.85715 z"
           id="path3119" />
        <path
           style="fill:#88aa00;stroke:none"
           d="m 426.66105,341.36054 c 0,0 -0.17857,7.5 3.92857,11.25 4.10715,3.75 5.71429,4.64286 5.71429,4.64286 0,0 -4.10714,-12.14286 -9.64286,-15.89286 z"
           id="path3121" />
      </g>
      <path
         id="path3171"
         d="m 1157.8392,556.08378 c -6.1233,-2.95101 2.573,-13.52974 5.2614,-27.80416 2.0769,-11.02795 12.1469,-103.83401 12.2503,-112.89959 0.031,-2.68714 1.3467,-1.33367 3.929,4.04061 3.9494,8.21956 10.785,17.17259 13.1112,17.17259 1.4949,0 -0.3515,-12.18235 -3.3122,-21.85364 -1.1284,-3.68575 -1.5829,-7.17 -1.0101,-7.74277 0.5727,-0.57278 5.9046,-0.43379 11.8486,0.30885 l 10.8072,1.35027 -0.5978,15.48388 c -1.3154,34.07553 -16.6221,127.06304 -17.8308,130.88916 -1.7942,5.67939 -27.2612,-1.93077 -34.4568,1.0548 z"
         style="fill:#88aa00;fill-opacity:1;fill-rule:nonzero;stroke:none"
         sodipodi:nodetypes="csssssscccsc" />
      <path
         id="path3173"
         d="m 1179.5156,396.76064 c -1.4867,-3.26595 -1.2143,-6.44893 1.007,-11.76505 1.6747,-4.00829 2.5419,-8.87294 1.927,-10.81033 -1.134,-3.57288 6.4285,-101.33796 7.9571,-102.86656 1.5737,-1.57363 12.5721,7.53585 19.9091,16.48967 l 7.3506,8.97047 -1.9403,24.95541 c -1.0672,13.72547 -2.0134,33.59221 -2.1027,44.1483 -0.089,10.5561 -0.7917,22.66962 -1.561,26.91895 l -1.3988,7.72605 -14.555,0.35517 c -13.2435,0.32317 -14.7386,-0.0483 -16.593,-4.12208 z"
         style="fill:#88aa00;fill-opacity:1;fill-rule:nonzero;stroke:none" />
      <path
         id="path3175"
         d="m 1164.3507,417.21357 c 0.072,-5.46469 0.1101,-5.86455 0.6607,-6.98229 1.2748,-2.58818 4.1424,-4.49064 8.2548,-5.47647 2.2471,-0.5387 4.672,-0.88218 4.672,-0.6618 0,0.70298 -4.036,7.12976 -6.7404,10.73317 -2.0391,2.71693 -5.5474,6.95037 -6.3734,7.69069 l -0.5504,0.49336 0.077,-5.79666 z"
         style="fill:#88aa00;fill-opacity:1;fill-rule:nonzero;stroke:none" />
      <path
         id="path3177"
         d="m 1188.2922,428.23567 c -2.7462,-3.40958 -5.9191,-7.85902 -6.6966,-9.39074 -0.4644,-0.91485 -1.0339,-2.3922 -1.2655,-3.283 -0.5337,-2.05225 -0.5378,-6.03234 -0.01,-8.56806 0.2169,-1.03973 0.3945,-1.97564 0.3946,-2.07981 5e-4,-0.51295 0.5216,-0.0571 1.335,1.16794 2.2632,3.40861 4.2854,8.35054 5.7371,14.01999 0.7621,2.97654 1.8672,8.97701 1.7208,9.34377 -0.044,0.11047 -0.5916,-0.43406 -1.2166,-1.21009 z"
         style="fill:#88aa00;fill-opacity:1;fill-rule:nonzero;stroke:none" />
      <path
         id="path3179"
         d="m 1149.0232,402.46722 -2.2722,-0.14168 3.708,-1.7038 c 2.0393,-0.93709 4.3119,-1.83344 5.0501,-1.99189 1.8399,-0.39496 7.5448,-0.11552 10.5598,0.51723 3.0613,0.64248 8.3337,2.10402 8.3337,2.31015 0,0.23325 -5.0485,0.72527 -10.2278,0.99677 -4.7503,0.24902 -11.2786,0.25472 -15.1516,0.0132 l 0,0 z"
         style="fill:#88aa00;fill-opacity:1;fill-rule:nonzero;stroke:none" />
      <path
         id="path3181"
         d="m 1172.7611,394.57629 c -3.1452,-1.90369 -6.6097,-3.83589 -10.8591,-6.05641 -1.8057,-0.94353 -3.152,-1.71774 -2.9918,-1.72047 0.5381,-0.009 5.3975,1.77008 7.5488,2.764 2.7804,1.28456 5.9323,3.35287 7.8209,5.13227 0.8314,0.78334 1.398,1.42086 1.2591,1.41669 -0.1389,-0.004 -1.3889,-0.69539 -2.7779,-1.53608 z"
         style="fill:#88aa00;fill-opacity:1;fill-rule:nonzero;stroke:none" />
      <path
         id="path3187"
         d="m 1142.9016,705.05989 c -1.6668,-0.26122 -4.6215,-0.87368 -6.566,-1.36103 l -3.5355,-0.88609 -0.7331,-2.89618 c -0.5942,-2.34751 -0.6255,-3.59141 -0.1651,-6.56599 0.3125,-2.0184 0.8257,-5.60173 1.1406,-7.96297 4.2221,-31.6579 7.1233,-49.31004 15.4813,-94.19672 5.0908,-27.34019 5.9692,-31.43395 6.921,-32.25403 0.9493,-0.818 1.6447,-0.89878 5.3851,-0.62556 2.3623,0.17256 8.7613,0.53598 14.2201,0.8076 5.4588,0.27162 11.1141,0.74887 12.5675,1.06055 l 2.6424,0.5667 -0.2681,4.36323 c -0.1475,2.39978 -0.8672,6.85924 -1.5992,9.90991 -0.7321,3.05068 -9.5149,43.4243 -9.9143,46.06836 -2.5567,16.9262 -12.6945,81.72712 -13.2276,82.05979 -2.7143,1.69376 -16.3171,2.85776 -22.3491,1.91243 z"
         style="fill:#88aa00;fill-opacity:1;fill-rule:nonzero;stroke:none"
         sodipodi:nodetypes="ccccsssssscccsssc" />
      <path
         id="path3189"
         d="m 1126.9201,849.17613 -7.3951,-0.78744 0.6807,-1.62913 c 2.7575,-6.59977 1.5423,-16.05546 -3.0419,-23.66828 l -1.7459,-2.89925 0.5476,-4.39393 c 0.3011,-2.41666 0.7114,-4.57528 0.9118,-4.79693 0.2003,-0.22164 0.7966,0.73479 1.325,2.1254 0.5284,1.39062 1.1669,2.59474 1.4188,2.67584 0.252,0.0811 2.2628,-4.17096 4.4685,-9.44901 4.6829,-11.20599 5.1925,-13.90726 3.472,-18.40518 -0.578,-1.5113 -0.9786,-2.82023 -0.8901,-2.90874 0.089,-0.0885 2.109,0.75198 4.49,1.86776 4.056,1.90071 17.8621,7.50243 20.5124,8.32276 1.0667,0.33019 1.1687,0.59669 0.9427,2.46382 -5.0312,41.56034 -6.0939,49.09158 -7.0464,49.93699 -2.4106,2.13954 -8.405,2.63623 -18.6501,1.54532 l 0,0 z"
         style="fill:#88aa00;fill-opacity:1;fill-rule:nonzero;stroke:none" />
      <path
         id="path3191"
         d="m 1122.446,764.7899 c 0,-0.97554 6.5237,-51.04422 6.8402,-52.49777 0.135,-0.61998 0.9809,-1.52911 1.8797,-2.0203 2.6688,-1.45849 16.2408,-0.93999 25.7037,0.98198 l 2.8564,0.58014 -4.7142,5.08586 c -5.5731,6.01236 -8.8141,10.01651 -13.1107,16.19753 -3.9294,5.65301 -8.8485,13.6139 -8.8485,14.32029 0,1.27994 19.1357,-8.41964 25.3848,-12.86711 l 2.4038,-1.71081 -0.3345,2.90674 c -0.1839,1.5987 -1.0439,8.58884 -1.911,15.53364 l -1.5766,12.6269 -4.2809,-0.25253 c -2.3544,-0.1389 -8.8265,-0.24442 -14.3823,-0.23449 -8.0993,0.0145 -10.6453,0.18968 -12.8448,0.88388 -3.1779,1.00296 -3.0651,0.98582 -3.0651,0.46605 z"
         style="fill:#88aa00;fill-opacity:1;fill-rule:nonzero;stroke:none" />
      <path
         id="path3193"
         d="m 1149.4781,785.01368 c -3.2231,-3.46008 -4.7401,-4.66271 -7.5761,-6.00622 -4.1554,-1.96855 -9.7892,-3.48676 -16.014,-4.31554 -3.6268,-0.48287 -4.4522,-0.7524 -4.4522,-1.45386 0,-0.96222 1.6015,-1.26076 15.9099,-2.96594 12.6284,-1.50496 18.9404,-1.83305 18.9404,-0.98448 0,0.99205 -2.5014,19.786 -2.6529,19.9319 -0.069,0.0663 -1.9385,-1.82637 -4.1551,-4.20586 z"
         style="fill:#88aa00;fill-opacity:1;fill-rule:nonzero;stroke:none" />
      <path
         id="path3195"
         d="m 1175.7321,748.68187 c -0.5553,-1.32034 -0.9569,-27.90773 -0.5108,-33.81411 l 0.3764,-4.98393 2.7856,3.03046 c 3.7409,4.06972 6.2514,9.34564 6.5627,13.7915 0.3035,4.33403 -0.779,7.62132 -5.3913,16.37252 -2.658,5.04305 -3.5243,6.31299 -3.8226,5.60356 z"
         style="fill:#88aa00;fill-opacity:1;fill-rule:nonzero;stroke:none" />
      <path
         id="path3197"
         d="m 1209.0666,732.66731 c -0.8334,-0.63812 -4.3563,-3.27812 -7.8287,-5.86667 -6.9671,-5.19372 -14.6784,-11.72836 -18.1828,-15.4082 l -2.2728,-2.38668 2.0203,0.35575 c 3.2555,0.57326 11.3477,3.76648 14.8998,5.87954 3.854,2.29265 5.412,3.59258 7.2075,6.01339 1.4868,2.00471 6.5715,12.6333 6.0262,12.5968 -0.1949,-0.0131 -1.0361,-0.54581 -1.8695,-1.18393 z"
         style="fill:#88aa00;fill-opacity:1;fill-rule:nonzero;stroke:none" />
      <path
         id="path3199"
         d="m 1183.0551,700.37795 c 0,-0.38411 5.7801,-2.275 8.8389,-2.89152 3.8716,-0.78037 10.1502,-0.33662 16.3562,1.15598 l 4.7395,1.1399 -13.0732,0.04 c -7.1903,0.022 -13.9256,0.20274 -14.9673,0.4017 -1.0417,0.19895 -1.8941,0.26825 -1.8941,0.15399 z"
         style="fill:#88aa00;fill-opacity:1;fill-rule:nonzero;stroke:none" />
      <path
         id="path3201"
         d="m 1142.0795,739.05199 c 1.0797,-2.00439 7.395,-10.59795 10.612,-14.44038 5.3971,-6.44645 14.7978,-14.98031 16.5019,-14.98031 1.0506,0 -1.9787,8.2396 -4.7352,12.87944 -2.5551,4.3009 -4.4458,6.55212 -7.3808,8.78815 -2.4887,1.89606 -14.2471,8.63698 -15.0657,8.63698 -0.2246,0 -0.1941,-0.39775 0.068,-0.88388 z"
         style="fill:#88aa00;fill-opacity:1;fill-rule:nonzero;stroke:none" />
      <path
         id="path3205"
         d="m 1084.5653,804.24871 c 0,-0.18531 1.6781,-2.8559 3.7292,-5.93465 5.6557,-8.48944 12.4307,-15.88182 17.6102,-19.21478 1.3043,-0.83926 1.389,-0.84077 1.389,-0.0247 0,1.76589 -1.6297,7.07889 -3.0102,9.81332 -2.1746,4.30749 -6.0605,7.89962 -13.0202,12.03595 -6.2217,3.69769 -6.698,3.93416 -6.698,3.32488 z"
         style="fill:#88aa00;fill-opacity:1;fill-rule:nonzero;stroke:none" />
      <path
         id="path3207"
         d="m 1083.1316,778.39017 c -6.6163,-0.40678 -6.9338,-0.70924 -7.3623,-7.01326 -0.1652,-2.4307 -0.5103,-6.37383 -0.7669,-8.76251 -0.2565,-2.38868 -1.6572,-19.82725 -3.1127,-38.75237 l -2.6463,-34.40932 2.6263,-5.5308 c 2.3894,-5.03181 3.4318,-7.87798 4.3188,-11.79253 l 0.3148,-1.38896 12.0491,0 c 6.627,0 12.7038,0.13095 13.5041,0.291 l 1.455,0.29101 3.4478,47.81751 c 1.8963,26.29963 3.5717,49.09118 3.7231,50.64788 l 0.2753,2.83037 -2.9684,1.66508 c -1.6326,0.91579 -3.658,2.17316 -4.5007,2.79414 -1.3557,0.99896 -2.3161,1.15816 -8.3338,1.38144 -3.7408,0.13879 -9.1512,0.10789 -12.0232,-0.0687 l 0,0 z"
         style="fill:#88aa00;fill-opacity:1;fill-rule:nonzero;stroke:none" />
      <path
         id="path3209"
         d="m 1084.3127,887.04986 c -0.2778,-0.21413 -0.948,-1.25921 -1.4895,-2.32239 -0.5414,-1.06319 -1.5963,-2.24948 -2.3442,-2.63622 l -1.3597,-0.70315 -0.3558,-8.728 c -1.4455,-35.45958 -3.0376,-87.16196 -2.705,-87.84558 0.7167,-1.47293 3.5309,-2.00342 12.26,-2.31104 l 8.5514,-0.30137 -1.078,1.5139 c -0.5928,0.83265 -1.4593,1.83038 -1.9253,2.21718 -1.1954,0.9921 -6.2272,7.67107 -8.9491,11.87883 -2.5605,3.95804 -7.4233,12.74894 -7.4233,13.41962 0,0.63551 10.399,-4.68682 16.6064,-8.49934 8.1055,-4.97833 11.8489,-9.11361 14.427,-15.93711 1.0201,-2.7 1.2372,-2.98293 1.4642,-1.90753 0.503,2.38389 1.3302,24.39032 2.857,76.01398 0.2793,9.44493 0.6355,18.71318 0.7914,20.59611 l 0.2835,3.42351 -2.4311,1.12218 c -2.2661,1.04599 -3.2539,1.13145 -14.553,1.25895 -6.667,0.0752 -12.3491,-0.0384 -12.6269,-0.25253 l 0,0 z"
         style="fill:#88aa00;fill-opacity:1;fill-rule:nonzero;stroke:none" />
      <path
         id="path3211"
         d="m 1118.5288,805.22466 c -1.7258,-5.40729 -3.5601,-12.8554 -4.3523,-17.67178 -0.9937,-6.04173 -1.3573,-9.23121 -1.0524,-9.23121 0.8519,0 7.0182,4.41611 8.5796,6.14436 4.5075,4.98928 4.7192,8.51762 1.0351,17.25379 -3.2165,7.62735 -2.9619,7.41543 -4.21,3.50484 l 0,0 z"
         style="fill:#88aa00;fill-opacity:1;fill-rule:nonzero;stroke:none" />
      <path
         id="path3213"
         d="m 1142.9016,788.6128 c -7.9847,-3.19319 -24.7556,-11.2103 -24.3335,-11.63234 0.3786,-0.37858 8.997,0.83807 13.6986,1.9338 5.3053,1.23644 10.0037,3.27177 12.2112,5.28991 2.4014,2.19535 6.941,7.2362 6.7097,7.45057 -0.1126,0.10442 -3.8413,-1.26445 -8.286,-3.04194 z"
         style="fill:#88aa00;fill-opacity:1;fill-rule:nonzero;stroke:none" />
      <path
         id="path3215"
         d="m 1122.4571,768.54336 c 3.1266,-1.81605 15.655,-3.34946 20.1919,-2.4714 l 2.2729,0.43988 -4.0406,0.37532 c -2.2224,0.20644 -6.6544,0.713 -9.849,1.1257 -3.1946,0.4127 -6.7175,0.86736 -7.8287,1.01035 -1.9767,0.25437 -1.9928,0.24402 -0.7465,-0.47985 z"
         style="fill:#88aa00;fill-opacity:1;fill-rule:nonzero;stroke:none" />
      <path
         id="path3217"
         d="m 1117.8965,990.0749 c 0,-0.76393 -0.3684,-14.00324 -0.8139,-29.4207 -0.4455,-15.41745 -0.877,-36.78218 -0.9588,-47.47717 -0.082,-10.69499 -0.3487,-20.24093 -0.5932,-21.2132 -0.4174,-1.66031 -0.592,-1.78312 -2.8726,-2.02031 l -2.4282,-0.25253 2.4463,-0.88723 c 4.4725,-1.6221 4.2136,-0.60493 3.6389,-14.296 -0.4744,-11.30445 -0.4439,-12.32086 0.4694,-15.62643 0.9679,-3.50325 0.9924,-3.53521 2.6878,-3.50008 2.0063,0.0416 16.4294,1.1038 21.1002,1.55398 l 3.2266,0.31099 -0.3288,4.67668 c -0.1808,2.57217 -1.1256,8.96311 -2.0995,14.20208 -2.0752,11.16294 -1.6303,7.99198 -9.3342,66.53826 -3.6551,27.77696 -6.2923,46.20537 -6.6788,46.67153 -0.9285,1.11957 -3.6185,2.12909 -5.6734,2.12909 -1.6085,0 -1.7844,-0.13662 -1.7878,-1.38896 z"
         style="fill:#88aa00;fill-opacity:1;fill-rule:nonzero;stroke:none" />
      <path
         id="path3219"
         d="m 1085.828,994.18591 c -4.6222,-1.05023 -5.2106,-1.33195 -5.5301,-2.64772 -0.5158,-2.12447 -1.1927,-29.90391 -1.5907,-65.28007 l -0.3671,-32.62832 1.3931,-0.34966 c 0.8292,-0.20811 1.6803,-0.11136 2.1025,0.23901 0.5115,0.42454 0.7093,0.4306 0.7093,0.0217 0,-0.8596 29.5914,-0.79637 30.1485,0.0644 0.2247,0.34724 0.437,8.92722 0.4718,19.06663 0.035,10.1394 0.4297,30.82228 0.8777,45.96194 1.0956,37.02423 1.1754,33.62371 -0.8146,34.71102 -1.432,0.78234 -3.2215,0.90794 -14.0159,0.98368 -6.8059,0.0477 -12.829,-0.0165 -13.3845,-0.14269 l 0,0 z"
         style="fill:#88aa00;fill-opacity:1;fill-rule:nonzero;stroke:none" />
      <path
         id="path3221"
         d="m 1077.9993,887.27158 c -4.0551,-2.65075 -19.0581,-9.69727 -36.618,-17.19848 -18.8264,-8.0422 -24.0239,-10.3758 -23.1877,-10.41097 0.8766,-0.0369 24.5279,8.90388 32.0265,12.10675 10.1424,4.33214 28.9443,13.09352 29.7133,13.84595 0.3693,0.36132 0.5966,1.21619 0.5051,1.89971 l -0.1664,1.24278 -2.2728,-1.48574 z"
         style="fill:#88aa00;fill-opacity:1;fill-rule:nonzero;stroke:none" />
      <path
         id="path3223"
         d="m 1073.4536,864.4692 c 1.647,-1.74121 1.7793,-1.79356 1.9368,-0.76596 0.208,1.35735 -0.2395,1.82334 -2.1893,2.28002 l -1.5153,0.35488 1.7678,-1.86894 z"
         style="fill:#88aa00;fill-opacity:1;fill-rule:nonzero;stroke:none" />
      <path
         id="path3225"
         d="m 1116.5113,837.3593 c -1.2906,-3.4109 -1.6369,-5.08298 -1.6203,-7.82302 l 0.021,-3.4849 0.9544,1.76776 c 1.4373,2.66247 2.618,8.0438 2.4424,11.13216 l -0.1561,2.74613 -1.6415,-4.33813 z"
         style="fill:#88aa00;fill-opacity:1;fill-rule:nonzero;stroke:none" />
      <path
         id="path3227"
         d="m 1116.4403,847.93131 c -0.3675,-0.19132 -1.2204,-1.2723 -1.2732,-1.61365 -0.018,-0.11784 -0.047,-1.03816 -0.064,-2.04516 l -0.031,-1.8309 0.499,1.48967 c 0.4962,1.48113 1.2619,3.96517 1.2619,4.09363 0,0.0951 -0.055,0.0819 -0.3923,-0.0936 z"
         style="fill:#88aa00;fill-opacity:1;fill-rule:nonzero;stroke:none" />
      <path
         id="path3229"
         d="m 1073.2243,830.6676 -1.277,-0.6698 1.274,-0.008 c 0.7007,-0.005 1.277,-0.005 1.2805,0 0.021,0.0259 0.044,1.34969 0.024,1.34886 -0.013,-5.5e-4 -0.5988,-0.30241 -1.3012,-0.6708 l 0,0 z"
         style="fill:#88aa00;fill-opacity:1;fill-rule:nonzero;stroke:none" />
      <path
         id="path3231"
         d="m 1058.8977,697.55911 c -0.059,-0.81601 -0.105,-3.81333 -0.1024,-6.66069 l 0.01,-5.17703 0.343,-1.2627 c 0.5979,-2.20152 2.1636,-5.02601 4.1483,-7.48371 1.0944,-1.35514 4.0749,-4.30862 5.6638,-5.61239 1.5451,-1.26787 4.5571,-3.50419 4.7228,-3.50661 0.066,-9.6e-4 0.08,0.5982 0.034,1.41886 -0.3252,5.75893 -3.9337,14.15824 -10.0493,23.39134 -1.4964,2.25914 -4.4407,6.37659 -4.5599,6.37659 -0.054,0 -0.146,-0.66765 -0.2049,-1.48366 z"
         style="fill:#88aa00;fill-opacity:1;fill-rule:nonzero;stroke:none" />
      <path
         id="path3233"
         d="m 1033.1115,682.15428 c 0.3061,-0.32987 2.2665,-2.47487 4.3565,-4.76665 4.1607,-4.5622 5.4955,-5.90592 6.7385,-6.78336 3.6467,-2.57429 7.811,-4.01785 13.4476,-4.66154 2.0307,-0.23191 7.0356,-0.19746 9.4192,0.0648 3.0742,0.33827 3.1486,0.13425 -0.7991,2.19036 -8.1289,4.2338 -17.0062,8.21858 -26.8028,12.03108 -3.3285,1.29531 -6.6481,2.52506 -6.8162,2.52506 -0.055,0 0.1503,-0.2699 0.4563,-0.59978 l 0,0 z"
         style="fill:#88aa00;fill-opacity:1;fill-rule:nonzero;stroke:none" />
      <path
         id="path3235"
         d="m 1067.44,662.59242 c -8.5138,-0.8563 -18.4732,-2.69255 -30.7168,-5.66336 -4.1027,-0.99548 -7.6997,-1.92357 -7.539,-1.94519 1.0041,-0.13507 4.1269,-0.49044 8.0143,-0.912 7.3463,-0.79666 9.6427,-0.73977 14.0159,0.34718 4.9895,1.24015 10.8017,3.9134 16.5412,7.60796 1.0967,0.70591 1.0959,0.70737 -0.3156,0.56541 z"
         style="fill:#88aa00;fill-opacity:1;fill-rule:nonzero;stroke:none" />
      <path
         id="path3237"
         d="m 1075.005,658.88921 c -0.1797,-0.24307 -0.6898,-0.95333 -1.1334,-1.57836 -3.3812,-4.76352 -7.7236,-9.85516 -14.3695,-16.84885 -0.9281,-0.97671 -1.6493,-1.77584 -1.6027,-1.77584 0.2552,0 8.2258,5.35839 9.7028,6.52295 0.5011,0.39505 1.5406,1.34764 2.3099,2.11686 3.3135,3.31274 4.9257,6.34933 5.3697,10.11377 0.074,0.62943 0.1158,1.31249 0.092,1.51791 l -0.043,0.3735 -0.3268,-0.44194 z"
         style="fill:#88aa00;fill-opacity:1;fill-rule:nonzero;stroke:none" />
      <path
         id="path3239"
         d="m 1073.8797,663.09766 c -0.5903,-0.4547 -1.6359,-1.21785 -2.3236,-1.69589 -1.012,-0.70346 -1.334,-1.00776 -1.689,-1.59616 -0.8051,-1.33447 -1.5545,-3.54414 -1.724,-5.08328 -0.091,-0.8284 -0.2809,-1.01364 1.8921,1.8474 2.5725,3.387 5.3038,7.44992 4.9493,7.36245 -0.017,-0.004 -0.5145,-0.37982 -1.1048,-0.83452 z"
         style="fill:#88aa00;fill-opacity:1;fill-rule:nonzero;stroke:none" />
      <path
         id="path3241"
         d="m 1078.1192,658.47958 c 0,-4.28231 -1.8029,-9.09085 -4.7343,-12.62691 -4.1438,-4.99858 -5.0258,-9.25167 -7.0711,-34.10066 -1.2852,-15.61439 -2.3367,-33.91838 -2.3367,-40.67554 0,-14.23528 0.679,-14.70328 21.3993,-14.74972 l 12.308,-0.0276 2.5838,38.89087 c 4.111,61.87896 4.1056,66.02789 -0.09,68.27315 -1.986,1.06285 -7.7617,1.93246 -12.8351,1.93246 -9.1556,0 -9.2241,-0.0514 -9.2241,-6.91606 z"
         style="fill:#88aa00;fill-opacity:1;fill-rule:nonzero;stroke:none" />
      <path
         id="path3243"
         d="m 1061.9568,551.42268 c 0,-0.7618 1.4233,-4.13747 3.1629,-7.50148 2.6006,-5.02901 3.1302,-13.81094 2.9788,-49.39715 -0.1012,-23.80441 0.5506,-43.28075 1.4485,-43.28075 0.8978,0 7.5123,3.86383 14.6988,8.58629 l 13.0663,8.5863 0.5469,40.91118 0.547,40.91118 -8.8513,0 c -4.8682,0 -13.0692,0.57814 -18.2246,1.28476 -5.1553,0.70661 -9.3733,0.66147 -9.3733,-0.10033 z"
         style="fill:#88aa00;fill-opacity:1;fill-rule:nonzero;stroke:none" />
      <path
         id="path3245"
         d="m 985.02691,904.6105 c 0.15706,-0.55559 0.96469,-4.0785 1.79474,-7.82869 2.61401,-11.81016 5.84228,-21.7522 8.66021,-26.6707 1.12017,-1.95516 2.36162,-3.21372 4.59214,-4.65535 4.6349,-2.99571 12.043,-5.51808 12.043,-4.10051 0,0.31132 -1.1607,3.6935 -2.5794,7.51596 -3.0653,8.25936 -7.2138,16.71617 -10.59434,21.59715 -2.69352,3.88898 -14.37319,15.75815 -13.91635,14.14214 z"
         style="fill:#88aa00;fill-opacity:1;fill-rule:nonzero;stroke:none" />
      <path
         id="path3247"
         d="m 942.41649,890.04788 c 0,-0.49609 14.41529,-12.16263 17.42513,-14.10245 5.0572,-3.25933 13.53884,-7.41045 21.71828,-10.62945 7.27821,-2.86432 18.00407,-6.41489 19.3786,-6.41489 2.2632,0 -18.80533,11.71532 -41.22018,22.92079 -16.01047,8.00384 -17.30183,8.6178 -17.30183,8.226 z"
         style="fill:#88aa00;fill-opacity:1;fill-rule:nonzero;stroke:none" />
      <path
         id="path3249"
         d="m 956.99294,853.4876 c 1.29988,-0.4821 5.35179,-1.65005 8.52316,-2.45678 5.98205,-1.52171 8.83615,-2.07076 12.43751,-2.39264 3.30308,-0.29522 8.08085,-0.30888 11.86929,-0.0339 3.29433,0.23909 7.75415,0.78681 10.9538,1.34528 1.0541,0.18398 0.9539,0.21086 -0.97854,0.26241 -7.4804,0.19953 -22.82114,1.36573 -38.23912,2.90692 -2.59308,0.25921 -4.73807,0.46929 -4.76666,0.46684 -0.0286,-0.002 0.0617,-0.0466 0.20056,-0.0981 z"
         style="fill:#88aa00;fill-opacity:1;fill-rule:nonzero;stroke:none" />
      <path
         id="path3251"
         d="m 1062.4526,859.21623 c -7.6789,-0.50732 -19.2581,-1.87602 -26.769,-3.16417 -2.8474,-0.48834 -5.6316,-0.95694 -6.1872,-1.04133 l -1.0101,-0.15345 0.8839,-0.21845 c 1.586,-0.39198 11.0959,-0.52646 14.9925,-0.21201 4.102,0.33102 9.0017,1.01125 13.0392,1.81021 3.1379,0.62096 11.568,2.65223 12.4141,2.99124 0.7371,0.29536 -2.798,0.28958 -7.3634,-0.012 z"
         style="fill:#88aa00;fill-opacity:1;fill-rule:nonzero;stroke:none" />
      <path
         id="path3253"
         d="m 1024.579,830.96053 c -0.014,-1.77364 7.5286,-36.13026 8.054,-36.68763 0.2394,-0.25404 0.9842,5.57797 1.2538,9.81826 0.4555,7.16301 -0.6141,11.83597 -4.4159,19.29322 -2.1291,4.17603 -4.8853,8.44458 -4.8919,7.57615 z"
         style="fill:#88aa00;fill-opacity:1;fill-rule:nonzero;stroke:none" />
      <path
         id="path3255"
         d="m 1015.8441,838.59834 c -2.2039,-2.51682 -9.0027,-9.71245 -13.5995,-14.39321 -2.2166,-2.25706 -3.94658,-4.10374 -3.84443,-4.10374 0.10216,0 2.08353,1.44286 4.40303,3.20635 5.1436,3.91059 9.6811,8.35498 11.8313,11.58849 1.5752,2.36874 3.0218,5.08439 2.8174,5.28884 -0.064,0.064 -0.7876,-0.64998 -1.6078,-1.58673 l 0,0 z"
         style="fill:#88aa00;fill-opacity:1;fill-rule:nonzero;stroke:none" />
    </g>
  </g>
</svg>
